<svg width="24" height="20" viewBox="0 0 24 20" fill="none" xmlns="http://www.w3.org/2000/svg">
<path d="M23.9999 2.30698C23.1026 2.70671 22.1497 2.96769 21.1739 3.08098C22.2017 2.46498 22.9713 1.49715 23.3399 0.356975C22.3732 0.929809 21.3161 1.33407 20.2139 1.55248C19.7527 1.0616 19.1956 0.670658 18.5771 0.403866C17.9586 0.137074 17.292 0.000115313 16.6184 0.00147487C15.8765 0.000699154 15.144 0.167728 14.4757 0.490061C13.8075 0.812394 13.2208 1.28168 12.7596 1.86281C12.2983 2.44394 11.9745 3.12186 11.8123 3.84584C11.6501 4.56981 11.6537 5.3211 11.8229 6.04348C9.86496 5.9451 7.94959 5.43607 6.20113 4.54944C4.45268 3.66281 2.91022 2.41839 1.6739 0.896975C1.04411 1.98049 0.850992 3.2633 1.13385 4.48421C1.41672 5.70512 2.15429 6.77231 3.1964 7.46848C2.41437 7.4432 1.64947 7.23295 0.964396 6.85498V6.91648C0.964123 8.05375 1.35749 9.15606 2.0777 10.0362C2.79791 10.9164 3.80057 11.5202 4.9154 11.745C4.18913 11.9429 3.4272 11.9722 2.6879 11.8305C3.00343 12.8083 3.616 13.6633 4.44032 14.2766C5.26465 14.8898 6.25969 15.2308 7.2869 15.252C6.26507 16.0547 5.09492 16.648 3.84347 16.9978C2.59202 17.3476 1.28385 17.447 -0.00610352 17.2905C2.24595 18.7383 4.86757 19.5065 7.5449 19.503C16.6004 19.503 21.5564 11.9985 21.5564 5.49148C21.5564 5.27548 21.5519 5.06548 21.5429 4.85398C22.5078 4.15999 23.3396 3.29769 23.9984 2.30848L23.9999 2.30698Z" fill="white"/>
</svg>
