<svg width="24" height="18" viewBox="0 0 24 18" fill="none" xmlns="http://www.w3.org/2000/svg">
<path d="M23.1917 3.40343C23.0588 2.9104 22.7991 2.46077 22.4385 2.09929C22.0778 1.73781 21.6288 1.4771 21.1361 1.34309C19.3091 0.841427 11.9999 0.833261 11.9999 0.833261C11.9999 0.833261 4.6919 0.825094 2.86373 1.30459C2.37131 1.44476 1.92319 1.70917 1.56239 2.07242C1.20159 2.43567 0.940229 2.88557 0.803396 3.37893C0.321563 5.20593 0.316896 8.99526 0.316896 8.99526C0.316896 8.99526 0.31223 12.8033 0.790563 14.6116C1.0589 15.6114 1.8464 16.4013 2.8474 16.6708C4.69306 17.1724 11.9824 17.1806 11.9824 17.1806C11.9824 17.1806 19.2916 17.1888 21.1186 16.7104C21.6115 16.5767 22.0609 16.3165 22.4225 15.9558C22.784 15.5951 23.0452 15.1462 23.1801 14.6536C23.6631 12.8278 23.6666 9.0396 23.6666 9.0396C23.6666 9.0396 23.6899 5.23043 23.1917 3.40343ZM9.6619 12.5058L9.66773 5.50576L15.7426 9.01159L9.6619 12.5058Z" fill="white"/>
</svg>
