<svg width="175" height="43" viewBox="0 0 175 43" fill="none" xmlns="http://www.w3.org/2000/svg">
<rect width="175" height="43" rx="3" fill="#FFDC62"/>
<path d="M35.8477 26L34.8701 23.2246H31.0488L30.0713 26H28.3418L32.0605 15.9648H33.8789L37.5908 26H35.8477ZM34.4463 21.8164L33.4961 19.082C33.4596 18.9635 33.4072 18.7972 33.3389 18.583C33.2705 18.3643 33.2021 18.1432 33.1338 17.9199C33.0654 17.6921 33.0085 17.5007 32.9629 17.3457C32.9173 17.5326 32.8604 17.7422 32.792 17.9746C32.7282 18.2025 32.6644 18.4167 32.6006 18.6172C32.5413 18.8177 32.4958 18.9727 32.4639 19.082L31.5068 21.8164H34.4463ZM37.9873 29.3633C37.7503 29.3633 37.5247 29.3451 37.3105 29.3086C37.0964 29.2767 36.9163 29.238 36.7705 29.1924V27.9072C36.9255 27.9528 37.0758 27.987 37.2217 28.0098C37.3675 28.0326 37.5339 28.0439 37.7207 28.0439C38.0169 28.0439 38.2607 27.9619 38.4521 27.7979C38.6481 27.6338 38.7461 27.3216 38.7461 26.8613V18.4326H40.3525V27.0049C40.3525 27.4652 40.2705 27.873 40.1064 28.2285C39.9469 28.584 39.6917 28.862 39.3408 29.0625C38.9945 29.263 38.5433 29.3633 37.9873 29.3633ZM38.6504 16.416C38.6504 16.0924 38.737 15.8646 38.9102 15.7324C39.0879 15.6003 39.3044 15.5342 39.5596 15.5342C39.8057 15.5342 40.0176 15.6003 40.1953 15.7324C40.3776 15.8646 40.4688 16.0924 40.4688 16.416C40.4688 16.735 40.3776 16.9629 40.1953 17.0996C40.0176 17.2318 39.8057 17.2979 39.5596 17.2979C39.3044 17.2979 39.0879 17.2318 38.9102 17.0996C38.737 16.9629 38.6504 16.735 38.6504 16.416ZM49.3555 22.1992C49.3555 22.8281 49.2734 23.3864 49.1094 23.874C48.9453 24.3617 48.7061 24.7741 48.3916 25.1113C48.0771 25.444 47.6989 25.6992 47.2568 25.877C46.8148 26.0501 46.3158 26.1367 45.7598 26.1367C45.2402 26.1367 44.764 26.0501 44.3311 25.877C43.8981 25.6992 43.5221 25.444 43.2031 25.1113C42.8887 24.7741 42.6449 24.3617 42.4717 23.874C42.2985 23.3864 42.2119 22.8281 42.2119 22.1992C42.2119 21.3652 42.3555 20.6589 42.6426 20.0801C42.9342 19.4967 43.349 19.0524 43.8867 18.7471C44.4245 18.4417 45.0648 18.2891 45.8076 18.2891C46.5049 18.2891 47.1201 18.4417 47.6533 18.7471C48.1865 19.0524 48.6035 19.4967 48.9043 20.0801C49.2051 20.6634 49.3555 21.3698 49.3555 22.1992ZM43.8662 22.1992C43.8662 22.7507 43.9323 23.2223 44.0645 23.6143C44.2012 24.0062 44.4108 24.307 44.6934 24.5166C44.9759 24.7217 45.3405 24.8242 45.7871 24.8242C46.2337 24.8242 46.5983 24.7217 46.8809 24.5166C47.1634 24.307 47.3708 24.0062 47.5029 23.6143C47.6351 23.2223 47.7012 22.7507 47.7012 22.1992C47.7012 21.6478 47.6351 21.1807 47.5029 20.7979C47.3708 20.4105 47.1634 20.1165 46.8809 19.916C46.5983 19.7109 46.2314 19.6084 45.7803 19.6084C45.1149 19.6084 44.6296 19.8317 44.3242 20.2783C44.0189 20.7249 43.8662 21.3652 43.8662 22.1992ZM57.7979 18.4326V26H56.5332L56.3145 24.9814H56.2256C56.0661 25.2412 55.8633 25.4577 55.6172 25.6309C55.3711 25.7995 55.0977 25.9248 54.7969 26.0068C54.4961 26.0934 54.1794 26.1367 53.8467 26.1367C53.277 26.1367 52.7894 26.041 52.3838 25.8496C51.9827 25.6536 51.6751 25.3529 51.4609 24.9473C51.2467 24.5417 51.1396 24.0176 51.1396 23.375V18.4326H52.7529V23.0742C52.7529 23.6621 52.8714 24.1019 53.1084 24.3936C53.3499 24.6852 53.7236 24.8311 54.2295 24.8311C54.7171 24.8311 55.1045 24.7308 55.3916 24.5303C55.6787 24.3298 55.8815 24.0335 56 23.6416C56.123 23.2497 56.1846 22.7689 56.1846 22.1992V18.4326H57.7979ZM62.918 24.8379C63.1276 24.8379 63.335 24.8197 63.54 24.7832C63.7451 24.7422 63.932 24.6943 64.1006 24.6396V25.8564C63.9229 25.9339 63.6927 26 63.4102 26.0547C63.1276 26.1094 62.8337 26.1367 62.5283 26.1367C62.0999 26.1367 61.7148 26.0661 61.373 25.9248C61.0312 25.779 60.7601 25.5306 60.5596 25.1797C60.359 24.8288 60.2588 24.3434 60.2588 23.7236V19.6562H59.2266V18.9385L60.334 18.3711L60.8604 16.751H61.8721V18.4326H64.0391V19.6562H61.8721V23.7031C61.8721 24.0859 61.9678 24.3708 62.1592 24.5576C62.3506 24.7445 62.6035 24.8379 62.918 24.8379ZM68.6533 18.2891C69.3278 18.2891 69.9066 18.4281 70.3896 18.7061C70.8727 18.984 71.2441 19.3783 71.5039 19.8887C71.7637 20.3991 71.8936 21.0098 71.8936 21.7207V22.582H66.8418C66.86 23.3158 67.056 23.8809 67.4297 24.2773C67.8079 24.6738 68.3366 24.8721 69.0156 24.8721C69.4987 24.8721 69.9316 24.8265 70.3145 24.7354C70.7018 24.6396 71.1006 24.5007 71.5107 24.3184V25.624C71.1325 25.8018 70.7474 25.9316 70.3555 26.0137C69.9635 26.0957 69.4941 26.1367 68.9473 26.1367C68.2044 26.1367 67.5505 25.9932 66.9854 25.7061C66.4248 25.4144 65.985 24.9814 65.666 24.4072C65.3516 23.833 65.1943 23.1198 65.1943 22.2676C65.1943 21.4199 65.3379 20.6999 65.625 20.1074C65.9121 19.515 66.3154 19.0638 66.835 18.7539C67.3545 18.444 67.9606 18.2891 68.6533 18.2891ZM68.6533 19.499C68.1475 19.499 67.7373 19.6631 67.4229 19.9912C67.113 20.3193 66.9307 20.8001 66.876 21.4336H70.3213C70.3167 21.0553 70.2529 20.7204 70.1299 20.4287C70.0114 20.137 69.8291 19.9092 69.583 19.7451C69.3415 19.5811 69.0316 19.499 68.6533 19.499ZM77.54 18.2891C77.6676 18.2891 77.8066 18.2959 77.957 18.3096C78.1074 18.3232 78.2373 18.3415 78.3467 18.3643L78.1963 19.8682C78.1006 19.8408 77.9821 19.8203 77.8408 19.8066C77.7041 19.793 77.5811 19.7861 77.4717 19.7861C77.1846 19.7861 76.9111 19.834 76.6514 19.9297C76.3916 20.0208 76.1615 20.1621 75.9609 20.3535C75.7604 20.5404 75.6032 20.7751 75.4893 21.0576C75.3753 21.3402 75.3184 21.6683 75.3184 22.042V26H73.7051V18.4326H74.9629L75.1816 19.7656H75.2568C75.4072 19.4967 75.5941 19.2507 75.8174 19.0273C76.0407 18.804 76.2959 18.6263 76.583 18.4941C76.8747 18.3574 77.1937 18.2891 77.54 18.2891ZM86.3516 18.2891C87.3086 18.2891 88.0309 18.501 88.5186 18.9248C89.0107 19.3486 89.2568 20.0094 89.2568 20.9072V26H88.1152L87.8076 24.9268H87.7529C87.5387 25.2002 87.3177 25.4258 87.0898 25.6035C86.862 25.7812 86.5977 25.9134 86.2969 26C86.0007 26.0911 85.6383 26.1367 85.21 26.1367C84.7588 26.1367 84.3555 26.0547 84 25.8906C83.6445 25.722 83.3643 25.4668 83.1592 25.125C82.9541 24.7832 82.8516 24.3503 82.8516 23.8262C82.8516 23.0469 83.141 22.4613 83.7197 22.0693C84.3031 21.6774 85.1826 21.4609 86.3584 21.4199L87.6709 21.3721V20.9756C87.6709 20.4515 87.5479 20.0778 87.3018 19.8545C87.0602 19.6312 86.7184 19.5195 86.2764 19.5195C85.8981 19.5195 85.5312 19.5742 85.1758 19.6836C84.8203 19.793 84.474 19.9274 84.1367 20.0869L83.6172 18.9521C83.9863 18.7562 84.4056 18.5967 84.875 18.4736C85.349 18.3506 85.8411 18.2891 86.3516 18.2891ZM87.6641 22.3838L86.6865 22.418C85.8844 22.4453 85.3216 22.582 84.998 22.8281C84.6745 23.0742 84.5127 23.4115 84.5127 23.8398C84.5127 24.2135 84.6243 24.487 84.8477 24.6602C85.071 24.8288 85.3649 24.9131 85.7295 24.9131C86.2855 24.9131 86.7458 24.7559 87.1104 24.4414C87.4795 24.1224 87.6641 23.6553 87.6641 23.04V22.3838ZM98.1025 18.4326V26H96.8379L96.6191 24.9814H96.5303C96.3708 25.2412 96.168 25.4577 95.9219 25.6309C95.6758 25.7995 95.4023 25.9248 95.1016 26.0068C94.8008 26.0934 94.484 26.1367 94.1514 26.1367C93.5817 26.1367 93.0941 26.041 92.6885 25.8496C92.2874 25.6536 91.9798 25.3529 91.7656 24.9473C91.5514 24.5417 91.4443 24.0176 91.4443 23.375V18.4326H93.0576V23.0742C93.0576 23.6621 93.1761 24.1019 93.4131 24.3936C93.6546 24.6852 94.0283 24.8311 94.5342 24.8311C95.0218 24.8311 95.4092 24.7308 95.6963 24.5303C95.9834 24.3298 96.1862 24.0335 96.3047 23.6416C96.4277 23.2497 96.4893 22.7689 96.4893 22.1992V18.4326H98.1025ZM107.926 18.2891C108.824 18.2891 109.544 18.6172 110.086 19.2734C110.633 19.9297 110.906 20.9049 110.906 22.1992C110.906 23.056 110.779 23.7783 110.523 24.3662C110.273 24.9495 109.92 25.3916 109.464 25.6924C109.013 25.9886 108.486 26.1367 107.885 26.1367C107.502 26.1367 107.169 26.0866 106.887 25.9863C106.604 25.8861 106.363 25.7562 106.162 25.5967C105.962 25.4326 105.793 25.2549 105.656 25.0635H105.561C105.583 25.2458 105.604 25.4486 105.622 25.6719C105.645 25.8906 105.656 26.0911 105.656 26.2734V29.3564H104.043V18.4326H105.355L105.581 19.4785H105.656C105.798 19.2643 105.968 19.0661 106.169 18.8838C106.374 18.7015 106.62 18.5579 106.907 18.4531C107.199 18.3438 107.538 18.2891 107.926 18.2891ZM107.495 19.6016C107.053 19.6016 106.698 19.6904 106.429 19.8682C106.164 20.0413 105.971 20.3034 105.848 20.6543C105.729 21.0052 105.665 21.445 105.656 21.9736V22.1992C105.656 22.7598 105.713 23.236 105.827 23.6279C105.946 24.0153 106.139 24.3115 106.408 24.5166C106.682 24.7171 107.051 24.8174 107.516 24.8174C107.908 24.8174 108.231 24.7103 108.486 24.4961C108.746 24.2819 108.94 23.9766 109.067 23.5801C109.195 23.1836 109.259 22.7165 109.259 22.1787C109.259 21.363 109.113 20.7295 108.821 20.2783C108.534 19.8271 108.092 19.6016 107.495 19.6016ZM115.732 18.2891C116.689 18.2891 117.412 18.501 117.899 18.9248C118.392 19.3486 118.638 20.0094 118.638 20.9072V26H117.496L117.188 24.9268H117.134C116.92 25.2002 116.699 25.4258 116.471 25.6035C116.243 25.7812 115.979 25.9134 115.678 26C115.382 26.0911 115.019 26.1367 114.591 26.1367C114.14 26.1367 113.736 26.0547 113.381 25.8906C113.025 25.722 112.745 25.4668 112.54 25.125C112.335 24.7832 112.232 24.3503 112.232 23.8262C112.232 23.0469 112.522 22.4613 113.101 22.0693C113.684 21.6774 114.563 21.4609 115.739 21.4199L117.052 21.3721V20.9756C117.052 20.4515 116.929 20.0778 116.683 19.8545C116.441 19.6312 116.099 19.5195 115.657 19.5195C115.279 19.5195 114.912 19.5742 114.557 19.6836C114.201 19.793 113.855 19.9274 113.518 20.0869L112.998 18.9521C113.367 18.7562 113.786 18.5967 114.256 18.4736C114.73 18.3506 115.222 18.2891 115.732 18.2891ZM117.045 22.3838L116.067 22.418C115.265 22.4453 114.702 22.582 114.379 22.8281C114.055 23.0742 113.894 23.4115 113.894 23.8398C113.894 24.2135 114.005 24.487 114.229 24.6602C114.452 24.8288 114.746 24.9131 115.11 24.9131C115.666 24.9131 116.127 24.7559 116.491 24.4414C116.86 24.1224 117.045 23.6553 117.045 23.04V22.3838ZM124.831 18.2891C125.683 18.2891 126.346 18.5101 126.82 18.9521C127.299 19.3896 127.538 20.0938 127.538 21.0645V26H125.932V21.3652C125.932 20.7773 125.811 20.3376 125.569 20.0459C125.328 19.7497 124.954 19.6016 124.448 19.6016C123.715 19.6016 123.204 19.8271 122.917 20.2783C122.634 20.7295 122.493 21.3835 122.493 22.2402V26H120.887V18.4326H122.138L122.363 19.458H122.452C122.616 19.1937 122.819 18.9772 123.061 18.8086C123.307 18.6354 123.58 18.5055 123.881 18.4189C124.186 18.3324 124.503 18.2891 124.831 18.2891ZM131.394 18.4326V26H129.787V18.4326H131.394ZM130.601 15.5342C130.847 15.5342 131.059 15.6003 131.236 15.7324C131.419 15.8646 131.51 16.0924 131.51 16.416C131.51 16.735 131.419 16.9629 131.236 17.0996C131.059 17.2318 130.847 17.2979 130.601 17.2979C130.345 17.2979 130.129 17.2318 129.951 17.0996C129.778 16.9629 129.691 16.735 129.691 16.416C129.691 16.0924 129.778 15.8646 129.951 15.7324C130.129 15.6003 130.345 15.5342 130.601 15.5342ZM136.712 18.2891C137.386 18.2891 137.965 18.4281 138.448 18.7061C138.931 18.984 139.303 19.3783 139.562 19.8887C139.822 20.3991 139.952 21.0098 139.952 21.7207V22.582H134.9C134.919 23.3158 135.115 23.8809 135.488 24.2773C135.867 24.6738 136.395 24.8721 137.074 24.8721C137.557 24.8721 137.99 24.8265 138.373 24.7354C138.76 24.6396 139.159 24.5007 139.569 24.3184V25.624C139.191 25.8018 138.806 25.9316 138.414 26.0137C138.022 26.0957 137.553 26.1367 137.006 26.1367C136.263 26.1367 135.609 25.9932 135.044 25.7061C134.483 25.4144 134.044 24.9814 133.725 24.4072C133.41 23.833 133.253 23.1198 133.253 22.2676C133.253 21.4199 133.396 20.6999 133.684 20.1074C133.971 19.515 134.374 19.0638 134.894 18.7539C135.413 18.444 136.019 18.2891 136.712 18.2891ZM136.712 19.499C136.206 19.499 135.796 19.6631 135.481 19.9912C135.172 20.3193 134.989 20.8001 134.935 21.4336H138.38C138.375 21.0553 138.312 20.7204 138.188 20.4287C138.07 20.137 137.888 19.9092 137.642 19.7451C137.4 19.5811 137.09 19.499 136.712 19.499ZM145.599 18.2891C145.726 18.2891 145.865 18.2959 146.016 18.3096C146.166 18.3232 146.296 18.3415 146.405 18.3643L146.255 19.8682C146.159 19.8408 146.041 19.8203 145.899 19.8066C145.763 19.793 145.64 19.7861 145.53 19.7861C145.243 19.7861 144.97 19.834 144.71 19.9297C144.45 20.0208 144.22 20.1621 144.02 20.3535C143.819 20.5404 143.662 20.7751 143.548 21.0576C143.434 21.3402 143.377 21.6683 143.377 22.042V26H141.764V18.4326H143.021L143.24 19.7656H143.315C143.466 19.4967 143.653 19.2507 143.876 19.0273C144.099 18.804 144.354 18.6263 144.642 18.4941C144.933 18.3574 145.252 18.2891 145.599 18.2891Z" fill="#343442"/>
</svg>
