<svg width="22" height="22" viewBox="0 0 22 22" fill="none" xmlns="http://www.w3.org/2000/svg">
<path fill-rule="evenodd" clip-rule="evenodd" d="M18.8622 12.1874C18.7608 12.0758 18.6187 12.015 18.4767 12.015H3.5231C3.38107 12.015 3.23904 12.0758 3.13759 12.1874C3.04628 12.299 3.00571 12.4412 3.01586 12.5933L3.73614 18.0512C3.96947 19.8164 5.48106 21.1454 7.25643 21.1454H14.7637C16.5492 21.1454 18.0709 19.8164 18.2941 18.041L18.984 12.5832C18.9941 12.4412 18.9535 12.299 18.8622 12.1874ZM9.98542 17.0875C9.98542 17.6454 9.52889 18.102 8.97092 18.102C8.41295 18.102 7.95643 17.6454 7.95643 17.0875V15.0585C7.95643 14.5005 8.41295 14.044 8.97092 14.044C9.52889 14.044 9.98542 14.5005 9.98542 15.0585V17.0875ZM14.0434 17.0875C14.0434 17.6454 13.5869 18.102 13.0289 18.102C12.4709 18.102 12.0144 17.6454 12.0144 17.0875V15.0585C12.0144 14.5005 12.4709 14.044 13.0289 14.044C13.5869 14.044 14.0434 14.5005 14.0434 15.0585V17.0875ZM21.1448 8.21067C21.1448 9.47168 20.1232 10.4933 18.8622 10.4933H3.13759C1.87657 10.4933 0.85498 9.47168 0.85498 8.21067C0.85498 6.94965 1.87657 5.92806 3.13759 5.92806H5.35323L8.10151 1.34773C8.38962 0.865848 9.01152 0.710613 9.4934 0.999743C9.97427 1.28786 10.1295 1.91058 9.84136 2.39145L7.72005 5.92707H14.2818L12.1605 2.39145C11.8724 1.91058 12.0276 1.28786 12.5085 0.999743C12.9893 0.711628 13.6122 0.866863 13.9004 1.34773L16.6486 5.92806H18.8643C20.1233 5.92806 21.1448 6.94965 21.1448 8.21067Z" fill="#292F36"/>
</svg>
