<svg width="16" height="20" viewBox="0 0 16 20" fill="none" xmlns="http://www.w3.org/2000/svg">
<path d="M2.92808 5.43428C2.92808 2.63732 5.20359 0.361816 8.00054 0.361816C10.7975 0.361816 13.073 2.63732 13.073 5.43428C13.073 8.23124 10.7975 10.5067 8.00054 10.5067C5.20359 10.5067 2.92808 8.23124 2.92808 5.43428ZM12.1772 11.5933C11.6101 11.4493 10.9933 11.5304 10.483 11.8145C8.94303 12.6707 7.05806 12.6707 5.51806 11.8145C5.00878 11.5314 4.39097 11.4513 3.82387 11.5933C1.803 12.1036 0.391846 13.9378 0.391846 16.053V17.0787C0.391846 17.7259 0.56429 18.3589 0.891971 18.9107C1.15878 19.3591 1.65896 19.6382 2.19563 19.6382H13.8045C14.3411 19.6382 14.8412 19.3602 15.1081 18.9097C15.4357 18.3589 15.6082 17.7259 15.6082 17.0787V16.053C15.6093 13.9378 14.1981 12.1036 12.1772 11.5933Z" fill="#292F36"/>
</svg>
