<svg width="51" height="34" viewBox="0 0 51 34" fill="none" xmlns="http://www.w3.org/2000/svg">
<rect x="0.814453" y="0.505615" width="48.8583" height="32.9943" rx="2.5" fill="url(#paint0_linear_250_5506)" stroke="#F1F1F1"/>
<path fill-rule="evenodd" clip-rule="evenodd" d="M19.0757 16.4992H25.8265C25.7663 15.0565 25.4263 13.5692 24.3951 12.6138C23.1668 11.4758 21.0153 11.0537 19.0928 11.0537C17.0919 11.0537 14.879 11.5167 13.6442 12.7377C12.5793 13.7895 12.3491 15.4819 12.3491 17.0024C12.3491 18.5951 12.7995 20.4477 13.9546 21.5148C15.183 22.6503 17.1733 22.9517 19.0928 22.9517C20.9575 22.9517 22.9773 22.6113 24.1986 21.5334C25.4163 20.4567 25.8371 18.643 25.8371 17.0024V16.9947H19.0757V16.4992ZM26.2796 16.995V22.6857H35.6706V22.678C37.0448 22.6039 38.1379 21.3791 38.1379 19.8751C38.1379 18.3706 37.0448 17.0672 35.6706 16.9924V16.995H26.2796ZM35.5637 11.292C36.903 11.292 37.966 12.4408 37.966 13.8905C37.966 15.2629 36.9897 16.3836 35.7478 16.4992H26.2795V11.2837H35.2674C35.3226 11.277 35.3871 11.2817 35.4501 11.2863C35.4894 11.2892 35.5281 11.292 35.5637 11.292Z" fill="#FEFEFE"/>
<defs>
<linearGradient id="paint0_linear_250_5506" x1="13.838" y1="-4.29919" x2="1.9695" y2="32.5538" gradientUnits="userSpaceOnUse">
<stop stop-color="#222E72"/>
<stop offset="0.591647" stop-color="#40CBFF"/>
<stop offset="1" stop-color="#3CB792"/>
</linearGradient>
</defs>
</svg>
