<svg width="50" height="34" viewBox="0 0 50 34" fill="none" xmlns="http://www.w3.org/2000/svg">
<rect x="1.15723" y="0.505615" width="48.2332" height="32.9943" rx="3.5" fill="white" stroke="#F3F3F3"/>
<path d="M29.7814 24.6315H20.9949V8.93945H29.7814V24.6315Z" fill="#FF5F00"/>
<path d="M21.5578 16.7841C21.5578 13.6009 23.0576 10.7654 25.3932 8.93814C23.6852 7.60192 21.5297 6.80437 19.1871 6.80437C13.6413 6.80437 9.14575 11.2724 9.14575 16.7841C9.14575 22.2959 13.6413 26.7639 19.1871 26.7639C21.5297 26.7639 23.6852 25.9664 25.3932 24.6302C23.0576 22.8028 21.5578 19.9673 21.5578 16.7841Z" fill="#EB001B"/>
<path d="M41.6316 16.7841C41.6316 22.2959 37.1361 26.7639 31.5902 26.7639C29.2476 26.7639 27.0921 25.9664 25.3835 24.6302C27.7197 22.8028 29.2195 19.9673 29.2195 16.7841C29.2195 13.6009 27.7197 10.7654 25.3835 8.93814C27.0921 7.60192 29.2476 6.80437 31.5902 6.80437C37.1361 6.80437 41.6316 11.2724 41.6316 16.7841Z" fill="#F79E1B"/>
</svg>
