<svg width="50" height="34" viewBox="0 0 50 34" fill="none" xmlns="http://www.w3.org/2000/svg">
<rect x="0.604736" y="0.505615" width="48.2332" height="32.9943" rx="3.5" fill="white" stroke="#F3F3F3"/>
<path fill-rule="evenodd" clip-rule="evenodd" d="M22.5473 17.2204L22.7616 15.8534L22.2841 15.8422H20.0042L21.5887 5.75484C21.5936 5.7243 21.6095 5.69594 21.6329 5.67577C21.6563 5.6556 21.6861 5.64453 21.7173 5.64453H25.5617C26.8381 5.64453 27.7189 5.91115 28.1787 6.43746C28.3943 6.68436 28.5316 6.94244 28.598 7.22635C28.6677 7.52431 28.6689 7.88026 28.6009 8.31447L28.596 8.34606V8.62431L28.8116 8.74696C28.9931 8.84367 29.1374 8.95432 29.248 9.081C29.4324 9.29217 29.5517 9.56052 29.6021 9.87854C29.6542 10.2057 29.637 10.595 29.5517 11.0358C29.4533 11.5428 29.2943 11.9844 29.0795 12.3456C28.8821 12.6785 28.6304 12.9547 28.3316 13.1686C28.0463 13.372 27.7074 13.5263 27.3242 13.6251C26.9528 13.7221 26.5294 13.7711 26.065 13.7711H25.7659C25.552 13.7711 25.3442 13.8485 25.181 13.9871C25.0175 14.1287 24.9093 14.3221 24.8761 14.5336L24.8535 14.6567L24.4748 17.0662L24.4577 17.1546C24.4531 17.1826 24.4453 17.1965 24.4338 17.206C24.4236 17.2146 24.4089 17.2204 24.3945 17.2204H22.5473Z" fill="#28356A"/>
<path fill-rule="evenodd" clip-rule="evenodd" d="M29.0157 8.37842C29.0043 8.45207 28.9911 8.52734 28.9764 8.60469C28.4694 11.2183 26.7349 12.1212 24.5197 12.1212H23.3917C23.1208 12.1212 22.8924 12.3186 22.8503 12.587L22.1093 17.3066C22.0818 17.4828 22.2171 17.6415 22.3941 17.6415H24.3946C24.6315 17.6415 24.8327 17.4688 24.87 17.2342L24.8897 17.1322L25.2663 14.7322L25.2906 14.6006C25.3274 14.3652 25.5291 14.1923 25.7659 14.1923H26.0651C28.0033 14.1923 29.5207 13.4022 29.9642 11.1158C30.1493 10.1607 30.0535 9.36315 29.5633 8.80226C29.4149 8.63316 29.2309 8.49276 29.0157 8.37842Z" fill="#298FC2"/>
<path fill-rule="evenodd" clip-rule="evenodd" d="M28.4854 8.16585C28.4079 8.14315 28.328 8.12263 28.2461 8.10407C28.1636 8.08597 28.0792 8.06995 27.9923 8.05589C27.6882 8.00655 27.355 7.98315 26.998 7.98315H23.9848C23.9105 7.98315 23.8401 7.99998 23.777 8.03041C23.638 8.0975 23.5348 8.2296 23.5098 8.39132L22.8687 12.4679L22.8503 12.5867C22.8925 12.3184 23.1208 12.1209 23.3918 12.1209H24.5197C26.7349 12.1209 28.4695 11.2176 28.9764 8.60445C28.9916 8.5271 29.0043 8.45183 29.0157 8.37818C28.8875 8.30982 28.7485 8.25138 28.599 8.20159C28.562 8.18925 28.5239 8.17738 28.4854 8.16585Z" fill="#22284F"/>
<path fill-rule="evenodd" clip-rule="evenodd" d="M23.5097 8.39139C23.5347 8.22967 23.6379 8.09757 23.7769 8.03095C23.8404 8.0004 23.9104 7.98357 23.9847 7.98357H26.9979C27.3549 7.98357 27.6881 8.00709 27.9922 8.05642C28.0791 8.07037 28.1635 8.0865 28.246 8.1046C28.3279 8.12304 28.4078 8.14368 28.4853 8.16627C28.5238 8.1778 28.5619 8.18978 28.5992 8.20166C28.7488 8.25145 28.8878 8.31035 29.016 8.37825C29.1669 7.41242 29.0148 6.75482 28.4947 6.15935C27.9213 5.50371 26.8865 5.22314 25.5622 5.22314H21.7177C21.4472 5.22314 21.2165 5.4206 21.1747 5.6894L19.5734 15.8805C19.5419 16.0822 19.6967 16.264 19.8992 16.264H22.2727L23.5097 8.39139Z" fill="#28356A"/>
<path fill-rule="evenodd" clip-rule="evenodd" d="M11.2201 19.9949H8.41705C8.22521 19.9949 8.06208 20.1348 8.03211 20.325L6.89844 27.5417C6.87594 27.6841 6.9858 27.8124 7.12965 27.8124H8.46779C8.65962 27.8124 8.82276 27.6726 8.85272 27.4821L9.15844 25.5356C9.18794 25.345 9.35142 25.2051 9.54291 25.2051H10.4302C12.2766 25.2051 13.3422 24.308 13.6206 22.5303C13.7459 21.7525 13.6259 21.1414 13.2631 20.7135C12.8647 20.2435 12.1581 19.9949 11.2201 19.9949ZM11.5433 22.6307C11.39 23.6406 10.6215 23.6406 9.87852 23.6406H9.45548L9.75224 21.7545C9.76992 21.6405 9.86819 21.5566 9.98299 21.5566H10.1769C10.6831 21.5566 11.1605 21.5566 11.4072 21.8463C11.5544 22.0191 11.5994 22.2759 11.5433 22.6307Z" fill="#28356A"/>
<path fill-rule="evenodd" clip-rule="evenodd" d="M19.6702 22.5438H18.3279C18.2136 22.5438 18.1147 22.6277 18.0972 22.7417L18.0377 23.1186L17.9439 22.982C17.6533 22.5585 17.0053 22.417 16.3586 22.417C14.8752 22.417 13.6084 23.545 13.3617 25.1273C13.2334 25.9165 13.4157 26.6713 13.8617 27.1976C14.2708 27.6815 14.8561 27.8832 15.5523 27.8832C16.7475 27.8832 17.4102 27.1116 17.4102 27.1116L17.3504 27.4861C17.3279 27.6293 17.4377 27.7577 17.5808 27.7577H18.7898C18.9821 27.7577 19.1444 27.6178 19.1747 27.4272L19.9001 22.8146C19.9231 22.6725 19.8136 22.5438 19.6702 22.5438ZM17.7991 25.1668C17.6696 25.9367 17.0611 26.4535 16.2848 26.4535C15.895 26.4535 15.5835 26.328 15.3834 26.0902C15.1851 25.854 15.1098 25.5178 15.1728 25.1433C15.2938 24.38 15.9126 23.8462 16.677 23.8462C17.0582 23.8462 17.368 23.9735 17.5722 24.2132C17.7766 24.4556 17.8578 24.7939 17.7991 25.1668Z" fill="#28356A"/>
<path fill-rule="evenodd" clip-rule="evenodd" d="M26.7158 22.6592H25.3669C25.2382 22.6592 25.1173 22.7234 25.0444 22.8308L23.184 25.5821L22.3954 22.9381C22.3459 22.7727 22.1939 22.6592 22.0216 22.6592H20.6963C20.5351 22.6592 20.4233 22.8172 20.4745 22.9695L21.9602 27.3471L20.5634 29.3269C20.4536 29.4829 20.5642 29.6973 20.754 29.6973H22.1012C22.2291 29.6973 22.3487 29.6347 22.4213 29.5295L26.9075 23.0275C27.015 22.872 26.9047 22.6592 26.7158 22.6592Z" fill="#28356A"/>
<path fill-rule="evenodd" clip-rule="evenodd" d="M31.2124 19.9949H28.409C28.2176 19.9949 28.0545 20.1348 28.0245 20.325L26.8909 27.5417C26.8684 27.6841 26.9782 27.8124 27.1213 27.8124H28.5599C28.6934 27.8124 28.8077 27.7146 28.8286 27.5812L29.1504 25.5356C29.1799 25.345 29.3435 25.2051 29.5349 25.2051H30.4219C32.2686 25.2051 33.3338 24.308 33.6126 22.5303C33.7384 21.7525 33.6175 21.1414 33.2547 20.7135C32.8567 20.2435 32.1505 19.9949 31.2124 19.9949ZM31.5358 22.6307C31.3829 23.6406 30.6144 23.6406 29.871 23.6406H29.4485L29.7456 21.7545C29.7632 21.6405 29.8607 21.5566 29.9759 21.5566H30.1698C30.6755 21.5566 31.1534 21.5566 31.4001 21.8463C31.5473 22.0191 31.592 22.2759 31.5358 22.6307Z" fill="#298FC2"/>
<path fill-rule="evenodd" clip-rule="evenodd" d="M39.6611 22.5438H38.3196C38.2044 22.5438 38.1065 22.6277 38.0893 22.7417L38.0298 23.1186L37.9356 22.982C37.645 22.5585 36.9974 22.417 36.3506 22.417C34.8674 22.417 33.601 23.545 33.3543 25.1273C33.2264 25.9165 33.4079 26.6713 33.8538 27.1976C34.2637 27.6815 34.8481 27.8832 35.5445 27.8832C36.7396 27.8832 37.4023 27.1116 37.4023 27.1116L37.3425 27.4861C37.32 27.6293 37.4298 27.7577 37.5737 27.7577H38.7824C38.9737 27.7577 39.1369 27.6178 39.1668 27.4272L39.8926 22.8146C39.9148 22.6725 39.8049 22.5438 39.6611 22.5438ZM37.79 25.1668C37.6613 25.9367 37.0519 26.4535 36.2756 26.4535C35.8866 26.4535 35.5744 26.328 35.3743 26.0902C35.176 25.854 35.1014 25.5178 35.1636 25.1433C35.2854 24.38 35.9034 23.8462 36.6678 23.8462C37.049 23.8462 37.3588 23.9735 37.563 24.2132C37.7682 24.4556 37.8494 24.7939 37.79 25.1668Z" fill="#298FC2"/>
<path fill-rule="evenodd" clip-rule="evenodd" d="M41.1316 20.1932L39.9812 27.542C39.9587 27.6845 40.0685 27.8128 40.2115 27.8128H41.3681C41.5604 27.8128 41.7235 27.673 41.753 27.4824L42.8874 20.2661C42.9101 20.1236 42.8002 19.9949 42.6571 19.9949H41.3621C41.2477 19.9952 41.1493 20.0792 41.1316 20.1932Z" fill="#298FC2"/>
</svg>
