<svg width="50" height="34" viewBox="0 0 50 34" fill="none" xmlns="http://www.w3.org/2000/svg">
<rect x="0.5" y="0.505615" width="48.2332" height="32.9943" rx="3.5" fill="white" stroke="#F3F3F3"/>
<path d="M21.8594 23.32H18.5815L20.6317 11.4214H23.9094L21.8594 23.32Z" fill="#15195A"/>
<path d="M33.7415 11.7121C33.0949 11.4714 32.0695 11.2056 30.8015 11.2056C27.5646 11.2056 25.2852 12.8257 25.2712 15.142C25.2443 16.851 26.9032 17.8002 28.1439 18.3701C29.412 18.9524 29.8431 19.3324 29.8431 19.8514C29.8302 20.6485 28.8184 21.016 27.8747 21.016C26.566 21.016 25.8648 20.8265 24.7992 20.3831L24.3676 20.193L23.9089 22.8639C24.6777 23.1927 26.0941 23.4844 27.5646 23.4972C31.0039 23.4972 33.243 21.9021 33.2695 19.4337C33.2826 18.0792 32.4067 17.0413 30.5182 16.1932C29.3717 15.6488 28.6696 15.2817 28.6696 14.7246C28.6831 14.2182 29.2635 13.6996 30.5576 13.6996C31.6232 13.6742 32.4061 13.9146 32.9992 14.1552L33.2957 14.2815L33.7415 11.7121Z" fill="#15195A"/>
<path fill-rule="evenodd" clip-rule="evenodd" d="M39.6088 11.4214H42.1442L44.7886 23.3198H41.7536C41.7536 23.3198 41.4566 21.9527 41.3625 21.535H37.1541C37.0324 21.8513 36.4662 23.3198 36.4662 23.3198H33.0269L37.8956 12.4086C38.233 11.6364 38.827 11.4214 39.6088 11.4214ZM39.4069 15.7756C39.4069 15.7756 38.3682 18.4212 38.0982 19.1047H40.8227C40.6879 18.5098 40.0672 15.6617 40.0672 15.6617L39.8381 14.6365C39.7417 14.9005 39.6022 15.2634 39.5081 15.5083C39.4443 15.6742 39.4014 15.7859 39.4069 15.7756Z" fill="#15195A"/>
<path fill-rule="evenodd" clip-rule="evenodd" d="M4.37915 11.4214H9.65283C10.3676 11.4465 10.9477 11.6616 11.1364 12.4216L12.2824 17.8879C12.2826 17.8885 12.2827 17.889 12.2829 17.8895L12.6337 19.5351L15.8438 11.4214H19.3098L14.1576 23.3074H10.6914L7.76991 12.9686C6.76189 12.4154 5.61146 11.9705 4.3252 11.6618L4.37915 11.4214Z" fill="#15195A"/>
</svg>
