<svg width="30" height="30" viewBox="0 0 30 30" fill="none" xmlns="http://www.w3.org/2000/svg">
<g clip-path="url(#clip0_422_7047)">
<path d="M16.1175 22.45H18.576C19.7022 22.45 20.7823 22.0026 21.5787 21.2062C22.3751 20.4099 22.8225 19.3297 22.8225 18.2035V15.529C23.4636 15.2696 23.9945 14.7954 24.3243 14.1875C24.6541 13.5797 24.7622 12.876 24.6301 12.1972C24.498 11.5184 24.1339 10.9066 23.6003 10.4668C23.0666 10.0269 22.3966 9.78642 21.705 9.78642C21.0134 9.78642 20.3434 10.0269 19.8097 10.4668C19.276 10.9066 18.912 11.5184 18.7799 12.1972C18.6478 12.876 18.7559 13.5797 19.0857 14.1875C19.4155 14.7954 19.9464 15.2696 20.5875 15.529V18.2035C20.5875 18.737 20.3756 19.2486 19.9983 19.6258C19.6211 20.0031 19.1095 20.215 18.576 20.215H16.1175V2.21133C16.1175 1.1579 16.718 0.10894 17.7714 0.10894C19.3836 0.10894 21.0047 0.64236 22.2429 1.60788C23.2069 2.35735 23.9623 3.3929 24.2589 4.64301C24.8847 4.74731 25.4419 5.06617 25.8919 5.48784C26.6071 6.15983 27.1167 7.13131 27.4385 8.1311C27.7633 9.14579 27.9272 10.2856 27.8781 11.3808C27.8527 11.941 27.7708 12.5132 27.6128 13.06L27.7112 13.1047C28.2625 13.364 28.7095 13.7708 29.0432 14.3116C29.6765 15.3323 29.9 16.8014 29.9 18.6743C29.9 20.8274 29.0775 22.2891 28.0196 23.1965C27.4686 23.6691 26.8236 24.0195 26.1273 24.2246C25.8742 25.3891 25.3545 26.479 24.609 27.4087C23.5317 28.7557 21.8585 29.894 19.6071 29.894C18.7973 29.8904 18.0002 29.6927 17.2827 29.3174C16.493 28.9121 16.1175 28.0286 16.1175 27.1405V22.45ZM20.96 12.765C20.96 12.9626 21.0385 13.1521 21.1782 13.2918C21.3179 13.4315 21.5074 13.51 21.705 13.51C21.9026 13.51 22.0921 13.4315 22.2318 13.2918C22.3715 13.1521 22.45 12.9626 22.45 12.765C22.45 12.5674 22.3715 12.3779 22.2318 12.2382C22.0921 12.0985 21.9026 12.02 21.705 12.02C21.5074 12.02 21.3179 12.0985 21.1782 12.2382C21.0385 12.3779 20.96 12.5674 20.96 12.765Z" fill="#4ECDC4"/>
<path d="M18.576 22.45H16.1175V27.1405C16.1175 28.0286 16.493 28.9121 17.2827 29.3174C18.0002 29.6927 18.7973 29.8904 19.6071 29.894C21.8585 29.894 23.5317 28.7557 24.609 27.4087C25.3545 26.479 25.8742 25.3891 26.1273 24.2246C26.8236 24.0195 27.4686 23.6691 28.0196 23.1965C29.0775 22.2891 29.9 20.8274 29.9 18.6743C29.9 16.8014 29.6765 15.3323 29.0432 14.3116C28.7095 13.7708 28.2625 13.364 27.7112 13.1047L27.6128 13.06C27.7708 12.5132 27.8527 11.941 27.8781 11.3808C27.9272 10.2856 27.7633 9.14579 27.4385 8.1311C27.1167 7.13131 26.6071 6.15983 25.8919 5.48784C25.4419 5.06617 24.8847 4.74731 24.2589 4.64301C23.9623 3.3929 23.2069 2.35735 22.2429 1.60788C21.0047 0.64236 19.3836 0.10894 17.7714 0.10894C16.718 0.10894 16.1175 1.1579 16.1175 2.21133V20.215H18.576C19.1095 20.215 19.6211 20.0031 19.9983 19.6258C20.3756 19.2486 20.5875 18.737 20.5875 18.2035V15.529C19.9464 15.2696 19.4155 14.7954 19.0857 14.1875C18.7559 13.5797 18.6478 12.876 18.7799 12.1972C18.912 11.5184 19.276 10.9066 19.8097 10.4668C20.3434 10.0269 21.0134 9.78642 21.705 9.78642C22.3966 9.78642 23.0666 10.0269 23.6003 10.4668C24.1339 10.9066 24.498 11.5184 24.6301 12.1972C24.7622 12.876 24.6541 13.5797 24.3243 14.1875C23.9945 14.7954 23.4636 15.2696 22.8225 15.529V18.2035C22.8225 19.3297 22.3751 20.4099 21.5787 21.2062C20.7823 22.0026 19.7022 22.45 18.576 22.45Z" fill="#4ECDC4"/>
<path d="M21.1782 13.2918C21.0385 13.1521 20.96 12.9626 20.96 12.765C20.96 12.5674 21.0385 12.3779 21.1782 12.2382C21.3179 12.0985 21.5074 12.02 21.705 12.02C21.9026 12.02 22.0921 12.0985 22.2318 12.2382C22.3715 12.3779 22.45 12.5674 22.45 12.765C22.45 12.9626 22.3715 13.1521 22.2318 13.2918C22.0921 13.4315 21.9026 13.51 21.705 13.51C21.5074 13.51 21.3179 13.4315 21.1782 13.2918Z" fill="#4ECDC4"/>
<path d="M18.576 22.45H16.1175V27.1405C16.1175 28.0286 16.493 28.9121 17.2827 29.3174C18.0002 29.6927 18.7973 29.8904 19.6071 29.894C21.8585 29.894 23.5317 28.7557 24.609 27.4087C25.3545 26.479 25.8742 25.3891 26.1273 24.2246C26.8236 24.0195 27.4686 23.6691 28.0196 23.1965C29.0775 22.2891 29.9 20.8274 29.9 18.6743C29.9 16.8014 29.6765 15.3323 29.0432 14.3116C28.7095 13.7708 28.2625 13.364 27.7112 13.1047L27.6128 13.06C27.7708 12.5132 27.8527 11.941 27.8781 11.3808C27.9272 10.2856 27.7633 9.14579 27.4385 8.1311C27.1167 7.13131 26.6071 6.15983 25.8919 5.48784C25.4419 5.06617 24.8847 4.74731 24.2589 4.64301C23.9623 3.3929 23.2069 2.35735 22.2429 1.60788C21.0047 0.64236 19.3836 0.10894 17.7714 0.10894C16.718 0.10894 16.1175 1.1579 16.1175 2.21133V20.215H18.576C19.1095 20.215 19.6211 20.0031 19.9983 19.6258C20.3756 19.2486 20.5875 18.737 20.5875 18.2035V15.529C19.9464 15.2696 19.4155 14.7954 19.0857 14.1875C18.7559 13.5797 18.6478 12.876 18.7799 12.1972C18.912 11.5184 19.276 10.9066 19.8097 10.4668C20.3434 10.0269 21.0134 9.78642 21.705 9.78642C22.3966 9.78642 23.0666 10.0269 23.6003 10.4668C24.1339 10.9066 24.498 11.5184 24.6301 12.1972C24.7622 12.876 24.6541 13.5797 24.3243 14.1875C23.9945 14.7954 23.4636 15.2696 22.8225 15.529V18.2035C22.8225 19.3297 22.3751 20.4099 21.5787 21.2062C20.7823 22.0026 19.7022 22.45 18.576 22.45Z" fill="#4ECDC4"/>
<path d="M21.1782 13.2918C21.0385 13.1521 20.96 12.9626 20.96 12.765C20.96 12.5674 21.0385 12.3779 21.1782 12.2382C21.3179 12.0985 21.5074 12.02 21.705 12.02C21.9026 12.02 22.0921 12.0985 22.2318 12.2382C22.3715 12.3779 22.45 12.5674 22.45 12.765C22.45 12.9626 22.3715 13.1521 22.2318 13.2918C22.0921 13.4315 21.9026 13.51 21.705 13.51C21.5074 13.51 21.3179 13.4315 21.1782 13.2918Z" fill="#4ECDC4"/>
</g>
<g clip-path="url(#clip1_422_7047)">
<path d="M12.2286 0.10894C13.282 0.10894 13.8825 1.1579 13.8825 2.21133V8.6675H12.5489C12.2896 8.02641 11.8154 7.49547 11.2075 7.16567C10.5996 6.83588 9.89599 6.72777 9.21716 6.85987C8.53833 6.99197 7.92658 7.35606 7.48675 7.88973C7.04692 8.42341 6.80639 9.09344 6.80639 9.785C6.80639 10.4766 7.04692 11.1466 7.48675 11.6803C7.92658 12.2139 8.53833 12.578 9.21716 12.7101C9.89599 12.8422 10.5996 12.7341 11.2075 12.4043C11.8154 12.0745 12.2896 11.5436 12.5489 10.9025H13.8825V27.1405C13.8825 28.0286 13.507 28.9121 12.7158 29.3159C11.9984 29.6917 11.2013 29.89 10.3914 29.894C8.1415 29.894 6.46824 28.7557 5.39097 27.4087C4.6449 26.4792 4.12466 25.3892 3.87117 24.2246C3.17536 24.0193 2.53094 23.6689 1.98036 23.1965C0.922456 22.2861 0.0999756 20.8259 0.0999756 18.6743C0.0999756 17.5494 0.180436 16.569 0.383076 15.745H6.65598C7.6662 15.745 8.50358 16.49 8.64513 17.46C8.00654 17.7242 7.47962 18.2021 7.15456 18.812C6.8295 19.4218 6.72651 20.1257 6.86321 20.8031C6.99991 21.4805 7.3678 22.0894 7.90392 22.5255C8.44004 22.9615 9.11106 23.1977 9.80212 23.1936C10.4932 23.1895 11.1613 22.9453 11.6922 22.5028C12.2231 22.0604 12.5837 21.4472 12.7123 20.7682C12.8409 20.0892 12.7295 19.3866 12.3972 18.7806C12.0648 18.1747 11.5323 17.7031 10.8906 17.4466C10.8123 16.377 10.3322 15.3766 9.54668 14.6463C8.76118 13.9161 7.72847 13.5102 6.65598 13.51H1.64958C1.8727 13.3256 2.12107 13.1741 2.38713 13.06C2.23354 12.5125 2.14453 11.949 2.12191 11.3808C2.07274 10.2856 2.23664 9.14579 2.56146 8.1311C2.8833 7.1328 3.39288 6.15983 4.10808 5.48784C4.55672 5.05068 5.1251 4.75663 5.74112 4.64301C6.03762 3.39141 6.79306 2.35735 7.75709 1.60788C8.99528 0.64236 10.6179 0.10894 12.2271 0.10894H12.2286ZM9.03998 9.785C9.03998 9.58741 9.11847 9.39792 9.25818 9.25821C9.39789 9.11849 9.58739 9.04 9.78498 9.04C9.98256 9.04 10.1721 9.11849 10.3118 9.25821C10.4515 9.39792 10.53 9.58741 10.53 9.785C10.53 9.98259 10.4515 10.1721 10.3118 10.3118C10.1721 10.4515 9.98256 10.53 9.78498 10.53C9.58739 10.53 9.39789 10.4515 9.25818 10.3118C9.11847 10.1721 9.03998 9.98259 9.03998 9.785ZM9.78498 19.47C9.58739 19.47 9.39789 19.5485 9.25818 19.6882C9.11847 19.8279 9.03998 20.0174 9.03998 20.215C9.03998 20.4126 9.11847 20.6021 9.25818 20.7418C9.39789 20.8815 9.58739 20.96 9.78498 20.96C9.98256 20.96 10.1721 20.8815 10.3118 20.7418C10.4515 20.6021 10.53 20.4126 10.53 20.215C10.53 20.0174 10.4515 19.8279 10.3118 19.6882C10.1721 19.5485 9.98256 19.47 9.78498 19.47Z" fill="#FFDC62"/>
</g>
<defs>
<clipPath id="clip0_422_7047">
<rect width="13.92" height="30" fill="white" transform="translate(16.08)"/>
</clipPath>
<clipPath id="clip1_422_7047">
<rect width="13.92" height="30" fill="white" />
</clipPath>
</defs>
</svg>
